<svg xmlns="http://www.w3.org/2000/svg" viewBox="0 0 512 512">
  <defs>
    <linearGradient id="station-blue" x1="0" y1="0" x2="1" y2="1">
      <stop offset="0" stop-color="#00D4FF"/>
      <stop offset="1" stop-color="#147BD1"/>
    </linearGradient>
    <linearGradient id="station-chart" x1="0" y1="0" x2="0" y2="1">
      <stop offset="0" stop-color="#00FFA3" stop-opacity=".28"/>
      <stop offset="1" stop-color="#00FFA3" stop-opacity="0"/>
    </linearGradient>
  </defs>
  <!-- SCINTILLA Station: the brand trefoil lives inside a dedicated live-chart screen. -->
  <rect width="512" height="512" rx="112" fill="#0A0A0F"/>
  <rect x="64" y="88" width="384" height="278" rx="52" fill="#0D1020" stroke="url(#station-blue)" stroke-width="16"/>
  <rect x="86" y="112" width="340" height="224" rx="30" fill="#080C16"/>
  <path d="M94 165h324M94 224h324M94 283h324" stroke="#273149" stroke-width="5" opacity=".72"/>
  <!-- Compact Scintilla trefoil brand mark. -->
  <g transform="translate(126 151)">
    <circle r="31" fill="#10182B" stroke="#00D4FF" stroke-width="3"/>
    <circle r="3" fill="#00D4FF"/>
    <path d="M-14 -12 A17 17 0 0 1 14 -12" stroke="#00D4FF" stroke-width="4" stroke-linecap="round" fill="none"/>
    <path d="M-14 -12 A17 17 0 0 1 14 -12" stroke="#00D4FF" stroke-width="4" stroke-linecap="round" fill="none" opacity=".84" transform="rotate(120)"/>
    <path d="M-14 -12 A17 17 0 0 1 14 -12" stroke="#00D4FF" stroke-width="4" stroke-linecap="round" fill="none" opacity=".68" transform="rotate(240)"/>
  </g>
  <path d="M96 291 L139 268 L174 278 L209 222 L246 244 L284 189 L323 207 L360 151 L414 180 L414 314 L96 314Z" fill="url(#station-chart)"/>
  <path d="M96 291 L139 268 L174 278 L209 222 L246 244 L284 189 L323 207 L360 151 L414 180" fill="none" stroke="#00FFA3" stroke-width="13" stroke-linecap="round" stroke-linejoin="round"/>
  <circle cx="414" cy="180" r="10" fill="#00FFA3"/>
  <path d="M185 393h142M219 365v28M293 365v28" fill="none" stroke="#167FD7" stroke-width="15" stroke-linecap="round"/>
  <rect x="176" y="414" width="160" height="20" rx="10" fill="#18243B"/>
</svg>
